<svg xmlns="http://www.w3.org/2000/svg" viewBox="0 0 1024 1024">
<defs>
<linearGradient id="bg" x1="0" y1="0" x2="0" y2="1">
<stop offset="0%" stop-color="#5BA8F4"/>
<stop offset="100%" stop-color="#3576C7"/>
</linearGradient>
<linearGradient id="bubble" x1="0" y1="0" x2="0" y2="1">
<stop offset="0%" stop-color="#FFFFFF"/>
<stop offset="100%" stop-color="#E8F1FD"/>
</linearGradient>
<filter id="shadow" x="-20%" y="-20%" width="140%" height="140%">
<feGaussianBlur in="SourceAlpha" stdDeviation="20"/>
<feOffset dx="0" dy="12" result="offsetblur"/>
<feComponentTransfer><feFuncA type="linear" slope="0.3"/></feComponentTransfer>
<feMerge><feMergeNode/><feMergeNode in="SourceGraphic"/></feMerge>
</filter>
</defs>
<rect width="1024" height="1024" rx="230" fill="url(#bg)"/>
<g filter="url(#shadow)">
<path d="M 200 350 Q 200 240 310 240 L 714 240 Q 824 240 824 350 L 824 580 Q 824 690 714 690 L 480 690 L 360 800 L 380 690 L 310 690 Q 200 690 200 580 Z" fill="url(#bubble)"/>
</g>
<circle cx="380" cy="465" r="42" fill="#3576C7"/>
<circle cx="512" cy="465" r="42" fill="#3576C7"/>
<circle cx="644" cy="465" r="42" fill="#3576C7"/>
<g opacity="0.85">
<path d="M 850 380 Q 920 460 850 540" stroke="#FFFFFF" stroke-width="20" fill="none" stroke-linecap="round"/>
<path d="M 890 340 Q 990 460 890 580" stroke="#FFFFFF" stroke-width="20" fill="none" stroke-linecap="round" opacity="0.6"/>
</g>
</svg>
