<svg xmlns="http://www.w3.org/2000/svg" viewBox="0 0 1024 1024">
  <rect width="1024" height="1024" rx="230" fill="#FAFAFA"/>
  <rect x="160" y="160" width="220" height="220" rx="40" fill="#42A5F5"/>
  <rect x="402" y="160" width="220" height="220" rx="40" fill="#FFA726"/>
  <rect x="644" y="160" width="220" height="220" rx="40" fill="#66BB6A"/>
  <rect x="160" y="402" width="220" height="220" rx="40" fill="#EF5350"/>
  <rect x="402" y="402" width="220" height="220" rx="40" fill="#AB47BC"/>
  <rect x="644" y="402" width="220" height="220" rx="40" fill="#26C6DA"/>
  <rect x="160" y="644" width="220" height="220" rx="40" fill="#FFCA28"/>
  <rect x="402" y="644" width="220" height="220" rx="40" fill="#7E57C2"/>
  <rect x="644" y="644" width="220" height="220" rx="40" fill="#FF7043"/>
  <text x="270" y="305" font-size="120" text-anchor="middle">😊</text>
  <text x="512" y="305" font-size="120" text-anchor="middle">🍎</text>
  <text x="754" y="305" font-size="120" text-anchor="middle">🏠</text>
  <text x="270" y="547" font-size="120" text-anchor="middle">💧</text>
  <text x="512" y="547" font-size="120" text-anchor="middle">🚽</text>
  <text x="754" y="547" font-size="120" text-anchor="middle">🛌</text>
  <text x="270" y="789" font-size="120" text-anchor="middle">🧸</text>
  <text x="512" y="789" font-size="120" text-anchor="middle">👩</text>
  <text x="754" y="789" font-size="120" text-anchor="middle">👨</text>
</svg>
